<svg viewBox="0 0 20 20" xmlns="http://www.w3.org/2000/svg" width="20.000000" height="20.000000" fill="none"
     customFrame="#000000">
	<rect id="EnvelopeSimple" width="20.000000" height="20.000000" x="0.000000" y="0.000000" />
	<path id="Vector (Stroke)" d="M1.875 4.375C1.875 4.02982 2.15482 3.75 2.5 3.75L17.5 3.75C17.8452 3.75 18.125 4.02982 18.125 4.375L18.125 15C18.125 15.3315 17.9933 15.6495 17.7589 15.8839C17.5245 16.1183 17.2065 16.25 16.875 16.25L3.125 16.25C2.79348 16.25 2.47554 16.1183 2.24112 15.8839C2.0067 15.6495 1.875 15.3315 1.875 15L1.875 4.375ZM3.125 5L3.125 15L16.875 15L16.875 5L3.125 5Z" fill="rgb(189,189,189)" fill-rule="evenodd" />
	<path id="Vector (Stroke)" d="M2.03928 3.95268C2.27253 3.69823 2.66788 3.68104 2.92233 3.91428L10 10.4021L17.0777 3.91428C17.3321 3.68104 17.7275 3.69823 17.9607 3.95268C18.194 4.20713 18.1768 4.60248 17.9223 4.83572L10.4223 11.7107C10.1834 11.9298 9.81663 11.9298 9.57767 11.7107L2.07768 4.83572C1.82323 4.60248 1.80604 4.20713 2.03928 3.95268Z" fill="rgb(189,189,189)" fill-rule="evenodd" />
</svg>
