<svg viewBox="0 0 20 20" xmlns="http://www.w3.org/2000/svg" width="20.000000" height="20.000000" fill="none"
     customFrame="#000000">
	<rect id="LockKey" width="20.000000" height="20.000000" x="0.000000" y="0.000000" />
	<path id="Vector (Stroke)" d="M10 10C9.48223 10 9.0625 10.4197 9.0625 10.9375C9.0625 11.4553 9.48223 11.875 10 11.875C10.5178 11.875 10.9375 11.4553 10.9375 10.9375C10.9375 10.4197 10.5178 10 10 10ZM7.8125 10.9375C7.8125 9.72938 8.79188 8.75 10 8.75C11.2081 8.75 12.1875 9.72938 12.1875 10.9375C12.1875 12.1456 11.2081 13.125 10 13.125C8.79188 13.125 7.8125 12.1456 7.8125 10.9375Z" fill="rgb(189,189,189)" fill-rule="evenodd" />
	<path id="Vector (Stroke)" d="M10 11.875C10.3452 11.875 10.625 12.1548 10.625 12.5L10.625 14.375C10.625 14.7202 10.3452 15 10 15C9.65482 15 9.375 14.7202 9.375 14.375L9.375 12.5C9.375 12.1548 9.65482 11.875 10 11.875Z" fill="rgb(189,189,189)" fill-rule="evenodd" />
	<path id="Vector (Stroke)" d="M2.5 7.5C2.5 6.80964 3.05964 6.25 3.75 6.25L16.25 6.25C16.9404 6.25 17.5 6.80964 17.5 7.5L17.5 16.25C17.5 16.9404 16.9404 17.5 16.25 17.5L3.75 17.5C3.05964 17.5 2.5 16.9404 2.5 16.25L2.5 7.5ZM16.25 7.5L3.75 7.5L3.75 16.25L16.25 16.25L16.25 7.5Z" fill="rgb(189,189,189)" fill-rule="evenodd" />
	<path id="Vector (Stroke)" d="M10 1.875C9.41984 1.875 8.86344 2.10547 8.4532 2.5157C8.04297 2.92594 7.8125 3.48234 7.8125 4.0625L7.8125 6.875C7.8125 7.22018 7.53268 7.5 7.1875 7.5C6.84232 7.5 6.5625 7.22018 6.5625 6.875L6.5625 4.0625C6.5625 3.15082 6.92466 2.27648 7.56932 1.63182C8.21398 0.987164 9.08832 0.625 10 0.625C10.9117 0.625 11.786 0.987164 12.4307 1.63182C13.0753 2.27648 13.4375 3.15082 13.4375 4.0625L13.4375 6.875C13.4375 7.22018 13.1577 7.5 12.8125 7.5C12.4673 7.5 12.1875 7.22018 12.1875 6.875L12.1875 4.0625C12.1875 3.48234 11.957 2.92594 11.5468 2.5157C11.1366 2.10547 10.5802 1.875 10 1.875Z" fill="rgb(189,189,189)" fill-rule="evenodd" />
</svg>
