<svg viewBox="0 0 40 40" xmlns="http://www.w3.org/2000/svg" xmlns:xlink="http://www.w3.org/1999/xlink" width="40.000000" height="40.000000" fill="none" customFrame="#000000">
	<defs>
		<clipPath id="clipPath_0">
			<rect width="40.000000" height="40.000000" x="0.000000" y="0.000000" fill="rgb(255,255,255)" />
		</clipPath>
	</defs>
	<rect id="Metamask" width="40.000000" height="40.000000" x="0.000000" y="0.000000" fill="rgb(255,255,255)" fill-opacity="0" />
	<g id="Metamask" clip-path="url(#clipPath_0)" customFrame="url(#clipPath_0)">
		<rect id="Metamask" width="40.000000" height="40.000000" x="0.000000" y="0.000000" />
		<g id="metamask">
			<path id="Vector" d="M38.0082 1.5625L22.4004 13.1547L25.2867 6.31544L38.0082 1.5625Z" fill="rgb(226,118,27)" fill-rule="nonzero" />
			<path id="Vector" d="M22.4004 13.1547L25.2867 6.31544L38.0082 1.5625L22.4004 13.1547Z" fill-rule="nonzero" stroke="rgb(226,118,27)" stroke-linecap="round" stroke-linejoin="round" stroke-width="0.312500" />
			<g id="Group">
				<path id="Vector" d="M1.97656 1.5625L17.4589 13.2645L14.7138 6.31544L1.97656 1.5625Z" fill="rgb(228,118,27)" fill-rule="nonzero" />
				<path id="Vector" d="M17.4589 13.2645L14.7138 6.31544L1.97656 1.5625L17.4589 13.2645Z" fill-rule="nonzero" stroke="rgb(228,118,27)" stroke-linecap="round" stroke-linejoin="round" stroke-width="0.312500" />
				<path id="Vector" d="M32.3912 28.4336L28.2344 34.8022L37.1285 37.2493L39.6854 28.5748L32.3912 28.4336Z" fill="rgb(228,118,27)" fill-rule="nonzero" />
				<path id="Vector" d="M28.2344 34.8022L37.1285 37.2493L39.6854 28.5748L32.3912 28.4336L28.2344 34.8022Z" fill-rule="nonzero" stroke="rgb(228,118,27)" stroke-linecap="round" stroke-linejoin="round" stroke-width="0.312500" />
				<path id="Vector" d="M0.330078 28.5748L2.87125 37.2493L11.7654 34.8022L7.60851 28.4336L0.330078 28.5748Z" fill="rgb(228,118,27)" fill-rule="nonzero" />
				<path id="Vector" d="M2.87125 37.2493L11.7654 34.8022L7.60851 28.4336L0.330078 28.5748L2.87125 37.2493Z" fill-rule="nonzero" stroke="rgb(228,118,27)" stroke-linecap="round" stroke-linejoin="round" stroke-width="0.312500" />
				<path id="Vector" d="M11.2636 17.6732L8.78516 21.4223L17.6165 21.8144L17.3028 12.3242L11.2636 17.6732Z" fill="rgb(228,118,27)" fill-rule="nonzero" />
				<path id="Vector" d="M8.78516 21.4223L17.6165 21.8144L17.3028 12.3242L11.2636 17.6732L8.78516 21.4223Z" fill-rule="nonzero" stroke="rgb(228,118,27)" stroke-linecap="round" stroke-linejoin="round" stroke-width="0.312500" />
				<path id="Vector" d="M28.722 17.6717L22.6043 12.2129L22.4004 21.8129L31.2161 21.4207L28.722 17.6717Z" fill="rgb(228,118,27)" fill-rule="nonzero" />
				<path id="Vector" d="M22.6043 12.2129L22.4004 21.8129L31.2161 21.4207L28.722 17.6717L22.6043 12.2129Z" fill-rule="nonzero" stroke="rgb(228,118,27)" stroke-linecap="round" stroke-linejoin="round" stroke-width="0.312500" />
				<path id="Vector" d="M11.7637 34.8014L17.0656 32.2132L12.4852 28.6367L11.7637 34.8014Z" fill="rgb(228,118,27)" fill-rule="nonzero" />
				<path id="Vector" d="M17.0656 32.2132L12.4852 28.6367L11.7637 34.8014L17.0656 32.2132Z" fill-rule="nonzero" stroke="rgb(228,118,27)" stroke-linecap="round" stroke-linejoin="round" stroke-width="0.312500" />
				<path id="Vector" d="M22.918 32.2132L28.2356 34.8014L27.4984 28.6367L22.918 32.2132Z" fill="rgb(228,118,27)" fill-rule="nonzero" />
				<path id="Vector" d="M28.2356 34.8014L27.4984 28.6367L22.918 32.2132L28.2356 34.8014Z" fill-rule="nonzero" stroke="rgb(228,118,27)" stroke-linecap="round" stroke-linejoin="round" stroke-width="0.312500" />
			</g>
			<g id="Group">
				<path id="Vector" d="M28.2356 34.8011L22.918 32.2129L23.3415 35.6796L23.2944 37.1384L28.2356 34.8011Z" fill="rgb(215,193,179)" fill-rule="nonzero" />
				<path id="Vector" d="M22.918 32.2129L23.3415 35.6796L23.2944 37.1384L28.2356 34.8011L22.918 32.2129Z" fill-rule="nonzero" stroke="rgb(215,193,179)" stroke-linecap="round" stroke-linejoin="round" stroke-width="0.312500" />
				<path id="Vector" d="M11.7656 34.8011L16.7068 37.1384L16.6754 35.6796L17.0676 32.2129L11.7656 34.8011Z" fill="rgb(215,193,179)" fill-rule="nonzero" />
				<path id="Vector" d="M16.7068 37.1384L16.6754 35.6796L17.0676 32.2129L11.7656 34.8011L16.7068 37.1384Z" fill-rule="nonzero" stroke="rgb(215,193,179)" stroke-linecap="round" stroke-linejoin="round" stroke-width="0.312500" />
			</g>
			<path id="Vector" d="M16.7849 26.3466L12.3613 25.0446L15.4829 23.6172L16.7849 26.3466Z" fill="rgb(35,52,71)" fill-rule="nonzero" />
			<path id="Vector" d="M12.3613 25.0446L15.4829 23.6172L16.7849 26.3466L12.3613 25.0446Z" fill-rule="nonzero" stroke="rgb(35,52,71)" stroke-linecap="round" stroke-linejoin="round" stroke-width="0.312500" />
			<path id="Vector" d="M23.1992 26.3466L24.5012 23.6172L27.6384 25.0446L23.1992 26.3466Z" fill="rgb(35,52,71)" fill-rule="nonzero" />
			<path id="Vector" d="M24.5012 23.6172L27.6384 25.0446L23.1992 26.3466L24.5012 23.6172Z" fill-rule="nonzero" stroke="rgb(35,52,71)" stroke-linecap="round" stroke-linejoin="round" stroke-width="0.312500" />
			<g id="Group">
				<path id="Vector" d="M11.7643 34.8022L12.5172 28.4336L7.60742 28.5748L11.7643 34.8022Z" fill="rgb(205,97,22)" fill-rule="nonzero" />
				<path id="Vector" d="M12.5172 28.4336L7.60742 28.5748L11.7643 34.8022L12.5172 28.4336Z" fill-rule="nonzero" stroke="rgb(205,97,22)" stroke-linecap="round" stroke-linejoin="round" stroke-width="0.312500" />
				<path id="Vector" d="M27.4824 28.4336L28.2354 34.8022L32.3922 28.5748L27.4824 28.4336Z" fill="rgb(205,97,22)" fill-rule="nonzero" />
				<path id="Vector" d="M28.2354 34.8022L32.3922 28.5748L27.4824 28.4336L28.2354 34.8022Z" fill-rule="nonzero" stroke="rgb(205,97,22)" stroke-linecap="round" stroke-linejoin="round" stroke-width="0.312500" />
				<path id="Vector" d="M31.2161 21.4219L22.4004 21.814L23.2161 26.3474L24.518 23.618L27.6553 25.0454L31.2161 21.4219Z" fill="rgb(205,97,22)" fill-rule="nonzero" />
				<path id="Vector" d="M22.4004 21.814L23.2161 26.3474L24.518 23.618L27.6553 25.0454L31.2161 21.4219L22.4004 21.814Z" fill-rule="nonzero" stroke="rgb(205,97,22)" stroke-linecap="round" stroke-linejoin="round" stroke-width="0.312500" />
				<path id="Vector" d="M12.3616 25.0454L15.4989 23.618L16.7852 26.3474L17.6165 21.814L8.78516 21.4219L12.3616 25.0454Z" fill="rgb(205,97,22)" fill-rule="nonzero" />
				<path id="Vector" d="M15.4989 23.618L16.7852 26.3474L17.6165 21.814L8.78516 21.4219L12.3616 25.0454L15.4989 23.618Z" fill-rule="nonzero" stroke="rgb(205,97,22)" stroke-linecap="round" stroke-linejoin="round" stroke-width="0.312500" />
			</g>
			<g id="Group">
				<path id="Vector" d="M8.78516 21.4219L12.4871 28.6376L12.3616 25.0454L8.78516 21.4219Z" fill="rgb(228,117,31)" fill-rule="nonzero" />
				<path id="Vector" d="M12.4871 28.6376L12.3616 25.0454L8.78516 21.4219L12.4871 28.6376Z" fill-rule="nonzero" stroke="rgb(228,117,31)" stroke-linecap="round" stroke-linejoin="round" stroke-width="0.312500" />
				<path id="Vector" d="M27.6549 25.0454L27.498 28.6376L31.2157 21.4219L27.6549 25.0454Z" fill="rgb(228,117,31)" fill-rule="nonzero" />
				<path id="Vector" d="M27.498 28.6376L31.2157 21.4219L27.6549 25.0454L27.498 28.6376Z" fill-rule="nonzero" stroke="rgb(228,117,31)" stroke-linecap="round" stroke-linejoin="round" stroke-width="0.312500" />
				<path id="Vector" d="M17.6165 21.8125L16.7852 26.3458L17.8204 31.6949L18.0557 24.6517L17.6165 21.8125Z" fill="rgb(228,117,31)" fill-rule="nonzero" />
				<path id="Vector" d="M16.7852 26.3458L17.8204 31.6949L18.0557 24.6517L17.6165 21.8125L16.7852 26.3458Z" fill-rule="nonzero" stroke="rgb(228,117,31)" stroke-linecap="round" stroke-linejoin="round" stroke-width="0.312500" />
				<path id="Vector" d="M22.4001 21.8125L21.9766 24.636L22.1648 31.6949L23.2158 26.3458L22.4001 21.8125Z" fill="rgb(228,117,31)" fill-rule="nonzero" />
				<path id="Vector" d="M21.9766 24.636L22.1648 31.6949L23.2158 26.3458L22.4001 21.8125L21.9766 24.636Z" fill-rule="nonzero" stroke="rgb(228,117,31)" stroke-linecap="round" stroke-linejoin="round" stroke-width="0.312500" />
			</g>
			<path id="Vector" d="M23.215 26.3469L22.1641 31.6959L22.917 32.2136L27.4974 28.6371L27.6543 25.0449L23.215 26.3469Z" fill="rgb(246,133,27)" fill-rule="nonzero" />
			<path id="Vector" d="M22.1641 31.6959L22.917 32.2136L27.4974 28.6371L27.6543 25.0449L23.215 26.3469L22.1641 31.6959Z" fill-rule="nonzero" stroke="rgb(246,133,27)" stroke-linecap="round" stroke-linejoin="round" stroke-width="0.312500" />
			<path id="Vector" d="M12.3613 25.0449L12.4868 28.6371L17.0672 32.2136L17.8202 31.6959L16.7849 26.3469L12.3613 25.0449Z" fill="rgb(246,133,27)" fill-rule="nonzero" />
			<path id="Vector" d="M12.4868 28.6371L17.0672 32.2136L17.8202 31.6959L16.7849 26.3469L12.3613 25.0449L12.4868 28.6371Z" fill-rule="nonzero" stroke="rgb(246,133,27)" stroke-linecap="round" stroke-linejoin="round" stroke-width="0.312500" />
			<path id="Vector" d="M23.295 37.138L23.3421 35.6792L22.9499 35.3341L17.0362 35.3341L16.6754 35.6792L16.7068 37.138L11.7656 34.8008L13.4911 36.2125L16.9892 38.6439L22.997 38.6439L26.5107 36.2125L28.2362 34.8008L23.295 37.138Z" fill="rgb(192,173,158)" fill-rule="nonzero" />
			<path id="Vector" d="M23.3421 35.6792L22.9499 35.3341L17.0362 35.3341L16.6754 35.6792L16.7068 37.138L11.7656 34.8008L13.4911 36.2125L16.9892 38.6439L22.997 38.6439L26.5107 36.2125L28.2362 34.8008L23.295 37.138L23.3421 35.6792Z" fill-rule="nonzero" stroke="rgb(192,173,158)" stroke-linecap="round" stroke-linejoin="round" stroke-width="0.312500" />
			<path id="Vector" d="M22.917 32.213L22.164 31.6953L17.8189 31.6953L17.066 32.213L16.6738 35.6796L17.0346 35.3345L22.9483 35.3345L23.3405 35.6796L22.917 32.213Z" fill="rgb(22,22,22)" fill-rule="nonzero" />
			<path id="Vector" d="M22.164 31.6953L17.8189 31.6953L17.066 32.213L16.6738 35.6796L17.0346 35.3345L22.9483 35.3345L23.3405 35.6796L22.917 32.213L22.164 31.6953Z" fill-rule="nonzero" stroke="rgb(22,22,22)" stroke-linecap="round" stroke-linejoin="round" stroke-width="0.312500" />
			<g id="Group">
				<path id="Vector" d="M38.667 13.9076L40.0003 7.5076L38.0082 1.5625L22.918 12.7625L28.7219 17.6723L36.9258 20.0723L38.7454 17.9547L37.9611 17.39L39.216 16.2449L38.2435 15.4919L39.4984 14.5351L38.667 13.9076Z" fill="rgb(118,61,22)" fill-rule="nonzero" />
				<path id="Vector" d="M40.0003 7.5076L38.0082 1.5625L22.918 12.7625L28.7219 17.6723L36.9258 20.0723L38.7454 17.9547L37.9611 17.39L39.216 16.2449L38.2435 15.4919L39.4984 14.5351L38.667 13.9076L40.0003 7.5076Z" fill-rule="nonzero" stroke="rgb(118,61,22)" stroke-linecap="round" stroke-linejoin="round" stroke-width="0.312500" />
				<path id="Vector" d="M0 7.5076L1.33333 13.9076L0.486275 14.5351L1.74118 15.4919L0.784314 16.2449L2.03922 17.39L1.2549 17.9547L3.05882 20.0723L11.2627 17.6723L17.0667 12.7625L1.97647 1.5625L0 7.5076Z" fill="rgb(118,61,22)" fill-rule="nonzero" />
				<path id="Vector" d="M1.33333 13.9076L0.486275 14.5351L1.74118 15.4919L0.784314 16.2449L2.03922 17.39L1.2549 17.9547L3.05882 20.0723L11.2627 17.6723L17.0667 12.7625L1.97647 1.5625L0 7.5076L1.33333 13.9076Z" fill-rule="nonzero" stroke="rgb(118,61,22)" stroke-linecap="round" stroke-linejoin="round" stroke-width="0.312500" />
			</g>
			<path id="Vector" d="M36.9255 20.0719L28.7216 17.6719L31.2157 21.4209L27.498 28.6366L32.3922 28.5738L39.6863 28.5738L36.9255 20.0719Z" fill="rgb(246,133,27)" fill-rule="nonzero" />
			<path id="Vector" d="M28.7216 17.6719L31.2157 21.4209L27.498 28.6366L32.3922 28.5738L39.6863 28.5738L36.9255 20.0719L28.7216 17.6719Z" fill-rule="nonzero" stroke="rgb(246,133,27)" stroke-linecap="round" stroke-linejoin="round" stroke-width="0.312500" />
			<path id="Vector" d="M11.2634 17.6719L3.05949 20.0719L0.330078 28.5738L7.60851 28.5738L12.4869 28.6366L8.78498 21.4209L11.2634 17.6719Z" fill="rgb(246,133,27)" fill-rule="nonzero" />
			<path id="Vector" d="M3.05949 20.0719L0.330078 28.5738L7.60851 28.5738L12.4869 28.6366L8.78498 21.4209L11.2634 17.6719L3.05949 20.0719Z" fill-rule="nonzero" stroke="rgb(246,133,27)" stroke-linecap="round" stroke-linejoin="round" stroke-width="0.312500" />
			<path id="Vector" d="M22.3992 21.8144L22.9168 12.7635L25.3011 6.31641L14.7129 6.31641L17.0658 12.7635L17.6149 21.8144L17.8031 24.6693L17.8188 31.6968L22.1639 31.6968L22.1952 24.6693L22.3992 21.8144Z" fill="rgb(246,133,27)" fill-rule="nonzero" />
			<path id="Vector" d="M22.9168 12.7635L25.3011 6.31641L14.7129 6.31641L17.0658 12.7635L17.6149 21.8144L17.8031 24.6693L17.8188 31.6968L22.1639 31.6968L22.1952 24.6693L22.3992 21.8144L22.9168 12.7635Z" fill-rule="nonzero" stroke="rgb(246,133,27)" stroke-linecap="round" stroke-linejoin="round" stroke-width="0.312500" />
		</g>
	</g>
</svg>
